<svg id="facebook" xmlns="http://www.w3.org/2000/svg" xmlns:xlink="http://www.w3.org/1999/xlink" width="38" height="38" viewBox="0 0 38 38">
  <metadata><?xpacket begin="﻿" id="W5M0MpCehiHzreSzNTczkc9d"?>
<x:xmpmeta xmlns:x="adobe:ns:meta/" x:xmptk="Adobe XMP Core 5.6-c140 79.160451, 2017/05/06-01:08:21        ">
   <rdf:RDF xmlns:rdf="http://www.w3.org/1999/02/22-rdf-syntax-ns#">
      <rdf:Description rdf:about=""/>
   </rdf:RDF>
</x:xmpmeta>
                                                                                                    
                                                                                                    
                                                                                                    
                                                                                                    
                                                                                                    
                                                                                                    
                                                                                                    
                                                                                                    
                                                                                                    
                                                                                                    
                                                                                                    
                                                                                                    
                                                                                                    
                                                                                                    
                                                                                                    
                                                                                                    
                                                                                                    
                                                                                                    
                                                                                                    
                                                                                                    
                           
<?xpacket end="w"?></metadata>
<defs>
    <style>
      .cls-1 {
        fill: url(#linear-gradient);
      }

      .cls-2 {
        fill: #33312d;
        fill-rule: evenodd;
      }
    </style>
    <linearGradient id="linear-gradient" x1="19" y1="38" x2="19" gradientUnits="userSpaceOnUse">
      <stop offset="0" stop-color="#fea700"/>
      <stop offset="1" stop-color="#ffc500"/>
    </linearGradient>
  </defs>
  <circle id="bg" class="cls-1" cx="19" cy="19" r="19"/>
  <path id="facebook_logo" class="cls-2" d="M1030.62,4436h-2.4c-2.69,0-4.43,1.93-4.43,4.92v2.27h-2.41a0.394,0.394,0,0,0-.38.41v3.29a0.391,0.391,0,0,0,.38.4h2.41v8.3a0.394,0.394,0,0,0,.38.41h3.14a0.394,0.394,0,0,0,.38-0.41v-8.3h2.82a0.391,0.391,0,0,0,.38-0.4v-3.29a0.436,0.436,0,0,0-.11-0.29,0.357,0.357,0,0,0-.27-0.12h-2.82v-1.92c0-.93.2-1.4,1.32-1.4h1.61a0.394,0.394,0,0,0,.38-0.41v-3.05A0.4,0.4,0,0,0,1030.62,4436Z" transform="translate(-1007 -4427)"/>
</svg>
