<svg id="logo" xmlns="http://www.w3.org/2000/svg" xmlns:xlink="http://www.w3.org/1999/xlink" width="117" height="18" viewBox="0 0 117 18">
  <metadata><?xpacket begin="﻿" id="W5M0MpCehiHzreSzNTczkc9d"?>
<x:xmpmeta xmlns:x="adobe:ns:meta/" x:xmptk="Adobe XMP Core 5.6-c140 79.160451, 2017/05/06-01:08:21        ">
   <rdf:RDF xmlns:rdf="http://www.w3.org/1999/02/22-rdf-syntax-ns#">
      <rdf:Description rdf:about=""/>
   </rdf:RDF>
</x:xmpmeta>
                                                                                                    
                                                                                                    
                                                                                                    
                                                                                                    
                                                                                                    
                                                                                                    
                                                                                                    
                                                                                                    
                                                                                                    
                                                                                                    
                                                                                                    
                                                                                                    
                                                                                                    
                                                                                                    
                                                                                                    
                                                                                                    
                                                                                                    
                                                                                                    
                                                                                                    
                                                                                                    
                           
<?xpacket end="w"?></metadata>
<defs>
    <style>
      .cls-1 {
        fill: url(#linear-gradient);
      }

      .cls-2 {
        fill: #fff;
        fill-rule: evenodd;
      }
    </style>
    <linearGradient id="linear-gradient" x1="93" y1="18" x2="93" gradientUnits="userSpaceOnUse">
      <stop offset="0" stop-color="#fff"/>
      <stop offset="1" stop-color="#fff" stop-opacity="0.102"/>
    </linearGradient>
  </defs>
  <circle id="o" class="cls-1" cx="93" cy="9" r="9"/>
  <path id="sunnsh_p" class="cls-2" d="M90.282,67.027a9.178,9.178,0,0,0-3.294-2.352,21.647,21.647,0,0,1-2.3-1.227,2.474,2.474,0,0,1-.709-0.706,1.611,1.611,0,0,1-.223-0.856,1.634,1.634,0,0,1,.551-1.281,2.306,2.306,0,0,1,1.582-.491,7.173,7.173,0,0,1,1.764.227,16.9,16.9,0,0,1,2.268.8L91.09,58.26a17.319,17.319,0,0,0-2.538-.909A9.862,9.862,0,0,0,86,57.028a6.315,6.315,0,0,0-4.261,1.328,4.566,4.566,0,0,0-1.541,3.65,4.688,4.688,0,0,0,.469,2.154,5.418,5.418,0,0,0,1.254,1.616,10.511,10.511,0,0,0,2.356,1.448A21.15,21.15,0,0,1,86.5,68.409a3.173,3.173,0,0,1,.826.772,1.556,1.556,0,0,1,.281.916,1.61,1.61,0,0,1-.639,1.388,3.077,3.077,0,0,1-1.834.466,8.508,8.508,0,0,1-2.2-.323A19.734,19.734,0,0,1,80,70.515v3.447a10.722,10.722,0,0,0,4.853,1.053A7.148,7.148,0,0,0,89.5,73.65a4.561,4.561,0,0,0,1.67-3.734A4.655,4.655,0,0,0,90.282,67.027Zm14.323-9.748V67.966a4.581,4.581,0,0,1-.8,2.986,3.2,3.2,0,0,1-2.584.951,3.274,3.274,0,0,1-2.638-.945,4.552,4.552,0,0,1-.8-2.968V57.278H94.162V68.552a6.2,6.2,0,0,0,1.829,4.733,7.177,7.177,0,0,0,5.134,1.73,8.627,8.627,0,0,0,3.8-.778A5.57,5.57,0,0,0,107.377,72a6.627,6.627,0,0,0,.85-3.4V57.278h-3.622Zm23.021,0h-3.27V65.56q0,1.412.176,4.823H124.45l-7.443-13.105h-4.583v17.5h3.246V66.542q0-1.5-.222-5h0.105l7.455,13.237h4.618v-17.5Zm15.055,9.748a9.179,9.179,0,0,0-3.294-2.352,21.663,21.663,0,0,1-2.3-1.227,2.459,2.459,0,0,1-.709-0.706,1.607,1.607,0,0,1-.223-0.856,1.635,1.635,0,0,1,.551-1.281,2.305,2.305,0,0,1,1.582-.491,7.168,7.168,0,0,1,1.764.227,16.927,16.927,0,0,1,2.269.8l1.172-2.884a17.3,17.3,0,0,0-2.538-.909,9.865,9.865,0,0,0-2.549-.323,6.313,6.313,0,0,0-4.261,1.328,4.565,4.565,0,0,0-1.542,3.65,4.7,4.7,0,0,0,.469,2.154,5.436,5.436,0,0,0,1.254,1.616,10.526,10.526,0,0,0,2.356,1.448,21.189,21.189,0,0,1,2.222,1.185,3.167,3.167,0,0,1,.826.772,1.553,1.553,0,0,1,.281.916,1.611,1.611,0,0,1-.638,1.388,3.081,3.081,0,0,1-1.835.466,8.513,8.513,0,0,1-2.2-.323,19.765,19.765,0,0,1-2.936-1.113v3.447a10.723,10.723,0,0,0,4.853,1.053A7.145,7.145,0,0,0,141.9,73.65a4.56,4.56,0,0,0,1.671-3.734A4.654,4.654,0,0,0,142.681,67.027Zm18.039-9.748H157.1v6.858h-6.786V57.278h-3.634v17.5h3.634V67.224H157.1v7.552h3.622v-17.5Zm28.065,3.04h1.653a3.219,3.219,0,0,1,2.186.623,2.454,2.454,0,0,1,.7,1.927,2.387,2.387,0,0,1-.832,1.968,3.921,3.921,0,0,1-2.508.676h-1.2V60.318Zm6.582-1.669a7.181,7.181,0,0,0-4.742-1.371h-5.473v17.5h3.633V68.552h1.559a7.29,7.29,0,0,0,4.917-1.5,5.4,5.4,0,0,0,1.729-4.321A5.049,5.049,0,0,0,195.367,58.649Z" transform="translate(-80 -57)"/>
</svg>
